<svg width="23" height="26" viewBox="0 0 23 26" fill="none" xmlns="http://www.w3.org/2000/svg">
<g clip-path="url(#clip0_290_1906)">
<path d="M18.3531 8.56043C18.3531 7.40587 17.9778 6.47068 17.2274 5.75486C16.4769 5.03903 15.4898 4.68112 14.2659 4.68112H8.72407V12.4397H14.2659C15.4898 12.4397 16.4769 12.0818 17.2274 11.366C17.9778 10.6502 18.3531 9.71498 18.3531 8.56043ZM22.4575 8.56043C22.4575 10.7887 21.7273 12.6071 20.2668 14.0157C18.8062 15.4243 16.9214 16.1285 14.6123 16.1285H8.72407V18.1721H17.4698C17.6315 18.1721 17.7642 18.2241 17.8682 18.328C17.9721 18.4319 18.024 18.5647 18.024 18.7263V20.943C18.024 21.1047 17.9721 21.2375 17.8682 21.3414C17.7642 21.4453 17.6315 21.4972 17.4698 21.4972H8.72407V24.8224C8.72407 24.984 8.66923 25.1168 8.55955 25.2207C8.44987 25.3246 8.31998 25.3765 8.16989 25.3765H5.27772C5.11608 25.3765 4.98331 25.3246 4.8794 25.2207C4.77549 25.1168 4.72354 24.984 4.72354 24.8224V21.4972H0.844226C0.682588 21.4972 0.549814 21.4453 0.445904 21.3414C0.341994 21.2375 0.290039 21.1047 0.290039 20.943V18.7263C0.290039 18.5647 0.341994 18.4319 0.445904 18.328C0.549814 18.2241 0.682588 18.1721 0.844226 18.1721H4.72354V16.1285H0.844226C0.682588 16.1285 0.549814 16.0766 0.445904 15.9727C0.341994 15.8688 0.290039 15.736 0.290039 15.5744V12.9939C0.290039 12.8438 0.341994 12.7139 0.445904 12.6043C0.549814 12.4946 0.682588 12.4397 0.844226 12.4397H4.72354V1.5465C4.72354 1.38486 4.77549 1.25208 4.8794 1.14817C4.98331 1.04426 5.11608 0.99231 5.27772 0.99231H14.6123C16.9214 0.99231 18.8062 1.69659 20.2668 3.10515C21.7273 4.51371 22.4575 6.33213 22.4575 8.56043Z" fill="white"/>
</g>
<defs>
<clipPath id="clip0_290_1906">
<rect width="22.4138" height="25" fill="white" transform="translate(0.167969 0.5)"/>
</clipPath>
</defs>
</svg>
