<svg width="26" height="26" viewBox="0 0 26 26" fill="none" xmlns="http://www.w3.org/2000/svg">
<g clip-path="url(#clip0_290_1915)">
<path d="M8.00098 8.83301V11.333L9.66764 12.1663" stroke="white" stroke-width="1.66667" stroke-miterlimit="10" stroke-linecap="round" stroke-linejoin="round"/>
<path d="M19.6686 13.8331V10.4998C19.6686 10.0398 20.042 9.66648 20.502 9.66648H22.8828L22.6011 9.00982C22.3386 8.39732 21.7361 7.99982 21.0695 7.99982H15.502V19.6665H18.0436C17.9736 19.3215 17.987 18.9473 18.1161 18.5615C18.3345 17.9081 18.8953 17.3915 19.5645 17.2298C20.9411 16.8965 22.1686 17.9298 22.1686 19.2498C22.1686 19.3923 22.1536 19.5315 22.127 19.6665H24.6686V13.8331H19.6686Z" fill="white"/>
<path d="M20.0824 21.3337C21.233 21.3337 22.1657 20.4009 22.1657 19.2503C22.1657 18.0997 21.233 17.167 20.0824 17.167C18.9318 17.167 17.999 18.0997 17.999 19.2503C17.999 20.4009 18.9318 21.3337 20.0824 21.3337Z" stroke="white" stroke-width="1.66667" stroke-miterlimit="10"/>
<path d="M6.7513 21.3337C7.9019 21.3337 8.83464 20.4009 8.83464 19.2503C8.83464 18.0997 7.9019 17.167 6.7513 17.167C5.60071 17.167 4.66797 18.0997 4.66797 19.2503C4.66797 20.4009 5.60071 21.3337 6.7513 21.3337Z" stroke="white" stroke-width="1.66667" stroke-miterlimit="10"/>
<path d="M23.834 18.8334H24.6673" stroke="white" stroke-width="1.66667" stroke-miterlimit="10" stroke-linecap="round"/>
<path d="M1.33496 18.8334H3.00163" stroke="white" stroke-width="1.66667" stroke-miterlimit="10" stroke-linecap="round"/>
<path d="M13.835 4.66699H3.00163C2.08079 4.66699 1.33496 5.41283 1.33496 6.33366V19.667H4.70996C4.63996 19.322 4.65329 18.9478 4.78246 18.562C5.00079 17.9087 5.56163 17.392 6.23163 17.2303C7.60746 16.897 8.83496 17.9303 8.83496 19.2503C8.83496 19.3928 8.81996 19.532 8.79329 19.667H15.5016V6.33366C15.5016 5.41283 14.7558 4.66699 13.835 4.66699ZM8.00163 15.5003C5.70079 15.5003 3.83496 13.6345 3.83496 11.3337C3.83496 9.03283 5.70079 7.16699 8.00163 7.16699C10.3025 7.16699 12.1683 9.03283 12.1683 11.3337C12.1683 13.6345 10.3025 15.5003 8.00163 15.5003Z" fill="white"/>
</g>
<defs>
<clipPath id="clip0_290_1915">
<rect width="25" height="25" fill="white" transform="translate(0.5 0.5)"/>
</clipPath>
</defs>
</svg>
