<svg width="84" height="19" viewBox="0 0 84 19" fill="none" xmlns="http://www.w3.org/2000/svg">
<g clip-path="url(#clip0_290_1532)">
<g opacity="0.75">
<g opacity="0.75">
<path opacity="0.75" d="M0 -0.000264168V12.5825H12.7337L0 -0.000264168Z" fill="#5A6C7D"/>
</g>
</g>
<path d="M0 0.000227928V12.583L12.7337 0.000227928H0Z" fill="#5A6C7D"/>
<path d="M61.1214 7.04605H57.0466V5.9136C57.0466 4.86504 58.0229 4.02618 59.084 4.02618C60.1451 4.02618 61.1214 4.86504 61.1214 5.9136V7.04605ZM59.084 2.51625C57.1739 2.51625 55.5186 4.02618 55.5186 5.9136V10.0659H57.0466V8.55598H61.1214V10.0659H62.6494V5.9136C62.6494 4.06813 60.9516 2.51625 59.084 2.51625Z" fill="#5A6C7D"/>
<path d="M82.2171 7.04605H78.1423V5.9136C78.1423 4.86504 79.1186 4.02618 80.1797 4.02618C81.2408 4.02618 82.2171 4.86504 82.2171 5.9136V7.04605ZM80.1797 2.51625C78.2696 2.51625 76.6143 4.02618 76.6143 5.9136V10.0659H78.1423V8.55598H82.2171V10.0659H83.7451V5.9136C83.7451 4.06813 82.0897 2.51625 80.1797 2.51625Z" fill="#5A6C7D"/>
<path d="M43.5496 8.55598C42.2762 8.55598 41.2575 7.54936 41.2575 6.29108C41.2575 5.03281 42.2762 4.02618 43.5496 4.02618C44.823 4.02618 45.8417 5.03281 45.8417 6.29108C45.8417 7.54936 44.7805 8.55598 43.5496 8.55598ZM43.5496 2.51625C41.4273 2.51625 39.7295 4.19395 39.7295 6.29108C39.7295 8.38821 41.4273 10.0659 43.5496 10.0659C45.6719 10.0659 47.3697 8.38821 47.3697 6.29108C47.3697 4.2359 45.6294 2.51625 43.5496 2.51625Z" fill="#5A6C7D"/>
<path d="M36.8431 8.55598H34.5935V7.04605H36.8431C37.2675 7.04605 37.6071 7.38159 37.6071 7.80102C37.6071 8.22044 37.2675 8.55598 36.8431 8.55598ZM34.6359 4.02618H36.1215C36.546 4.02618 36.8855 4.36172 36.8855 4.78115C36.8855 5.20058 36.546 5.53612 36.1215 5.53612H34.6359V4.02618ZM38.074 5.9136C38.2438 5.57806 38.3711 5.20058 38.3711 4.78115C38.3711 3.52287 37.3524 2.51625 36.0791 2.51625H33.0654V10.0659H36.8431C38.1165 10.0659 39.1352 9.0593 39.1352 7.80102C39.1352 7.00411 38.7107 6.29108 38.074 5.9136Z" fill="#5A6C7D"/>
<path d="M28.3963 8.55598C27.1229 8.55598 26.1042 7.54936 26.1042 6.29108C26.1042 5.03281 27.1229 4.02618 28.3963 4.02618C29.6697 4.02618 30.6884 5.03281 30.6884 6.29108C30.6884 7.54936 29.6272 8.55598 28.3963 8.55598ZM28.3963 2.51625C26.274 2.51625 24.5762 4.19395 24.5762 6.29108C24.5762 8.38821 26.274 10.0659 28.3963 10.0659C30.5186 10.0659 32.2164 8.38821 32.2164 6.29108C32.2164 4.2359 30.4761 2.51625 28.3963 2.51625Z" fill="#5A6C7D"/>
<path d="M67.4459 5.57811H65.6632C65.2387 5.57811 64.8991 5.24257 64.8991 4.82314C64.8991 4.40371 65.2387 4.06817 65.6632 4.06817H68.4646L69.4833 2.55824H65.6632C64.3898 2.55824 63.3711 3.56486 63.3711 4.82314C63.3711 5.99753 64.2625 6.96221 65.4085 7.08804H67.1912C67.6157 7.08804 67.9552 7.42358 67.9552 7.84301C67.9552 8.26244 67.6157 8.59798 67.1912 8.59798H64.3898L63.3711 10.1079H67.1912C68.4646 10.1079 69.4833 9.10129 69.4833 7.84301C69.5257 6.62667 68.5919 5.70394 67.4459 5.57811Z" fill="#5A6C7D"/>
<path d="M72.0303 2.51625C70.757 2.51625 69.7383 3.52287 69.7383 4.78115C69.7383 5.95554 70.6296 6.92022 71.7757 7.04605H73.5584C73.9828 7.04605 74.3224 7.38159 74.3224 7.80102C74.3224 8.22044 73.9828 8.55598 73.5584 8.55598H70.757L69.7383 10.0659H73.5584C74.8318 10.0659 75.8504 9.0593 75.8504 7.80102C75.8504 6.62662 74.9591 5.66194 73.8131 5.53612H72.0303C71.6059 5.53612 71.2663 5.20058 71.2663 4.78115C71.2663 4.36172 71.6059 4.02618 72.0303 4.02618H74.8318L75.8504 2.51625H72.0303Z" fill="#5A6C7D"/>
<path d="M54.6701 2.51625L51.5291 5.78777L54.7126 10.0659H52.9298L50.5104 6.87828L49.8737 7.5913V10.0659H48.3457V2.51625H49.8737V5.49417L52.6327 2.51625H54.6701Z" fill="#5A6C7D"/>
<path d="M19.3552 5.9136H21.3926C21.9444 5.9136 22.4113 5.45223 22.4113 4.90698C22.4113 4.36172 21.9444 3.90036 21.3926 3.90036H19.3552V5.9136ZM19.3552 10.0659H17.8271V2.51625H21.435C22.0717 2.51625 22.6235 2.72596 23.0904 3.18733C23.5573 3.6487 23.9393 4.27784 23.9393 4.90698C23.9393 5.49417 23.812 5.95554 23.43 6.41691C23.0904 6.83634 22.7084 7.17188 22.1566 7.29771L24.0667 10.0659H22.2839L20.5012 7.46548C20.4163 7.38159 20.3314 7.29771 20.2041 7.29771H19.3976V10.0659H19.3552Z" fill="#5A6C7D"/>
<g opacity="0.899994">
<g opacity="0.899994">
<path opacity="0.899994" d="M59.8487 15.3929C59.2969 15.3929 58.7875 15.8543 58.7875 16.3996C58.7875 16.9448 59.2544 17.4062 59.8487 17.4062C60.4005 17.4062 60.9098 16.9448 60.9098 16.3996C60.9098 15.8543 60.4429 15.3929 59.8487 15.3929ZM58.4904 19C58.2782 19 58.1084 18.8322 58.1084 18.6225V16.3576C58.1084 15.4349 58.9149 14.638 59.8911 14.638C60.8674 14.638 61.6738 15.3929 61.6738 16.3576C61.6738 17.2804 60.8674 18.0773 59.8911 18.0773C59.5515 18.0773 59.2544 17.9934 58.9149 17.8256L58.83 17.7837V18.6225C58.83 18.8322 58.6602 19 58.4904 19Z" fill="#5A6C7D"/>
</g>
</g>
<g opacity="0.899994">
<g opacity="0.899994">
<path opacity="0.899994" d="M67.1914 18.958C66.9792 18.958 66.8094 18.7902 66.8094 18.5805V17.4481L65.4936 15.4348C65.4512 15.3509 65.4512 15.2671 65.4512 15.1412C65.4936 15.0573 65.5361 14.9735 65.621 14.9315C65.6634 14.8896 65.7483 14.8896 65.8332 14.8896C65.9605 14.8896 66.0879 14.9315 66.1303 15.0573L67.1914 16.6512L68.2526 15.0573C68.295 14.9315 68.4648 14.8896 68.5497 14.8896C68.5921 14.8896 68.677 14.9315 68.7619 14.9315C68.8468 14.9735 68.8893 15.0573 68.9317 15.1412C68.9742 15.2251 68.9317 15.3509 68.8893 15.4348L67.5734 17.4061V18.5386C67.5734 18.7902 67.4461 18.958 67.1914 18.958Z" fill="#5A6C7D"/>
</g>
</g>
<g opacity="0.899994">
<g opacity="0.899994">
<path opacity="0.899994" d="M64.9001 18.7483C64.9426 18.8741 65.1124 18.958 65.2397 18.958C65.2822 18.958 65.3246 18.958 65.367 18.9161C65.5793 18.8322 65.6642 18.6225 65.5793 18.4547L64.0512 15.1412C64.0088 15.0573 63.9239 14.9735 63.839 14.9315C63.7966 14.8896 63.7541 14.8896 63.7117 14.8896C63.5843 14.8896 63.4145 14.9735 63.3721 15.0993L61.8441 18.4128C61.7592 18.5805 61.8441 18.7902 62.0563 18.8741C62.0987 18.9161 62.1412 18.9161 62.1836 18.9161C62.311 18.9161 62.4807 18.8322 62.5232 18.7064L63.7117 16.1059L64.9001 18.7483Z" fill="#5A6C7D"/>
</g>
</g>
<g opacity="0.899994">
<g opacity="0.899994">
<path opacity="0.899994" d="M70.7572 18.958C70.2903 18.958 69.8234 18.7902 69.5687 18.5386C69.4839 18.4966 69.4414 18.3708 69.4414 18.2869C69.4414 18.1611 69.4839 18.0772 69.5687 18.0353C69.6536 17.9514 69.7385 17.9094 69.8659 17.9094C69.9508 17.9094 70.0781 17.9514 70.1205 18.0353C70.2479 18.1611 70.545 18.245 70.7572 18.245C71.1392 18.245 71.3939 18.0353 71.3939 17.7417C71.3939 17.3642 71.0119 17.2384 70.5874 17.1545C70.0356 17.0286 69.4414 16.8189 69.4414 16.022C69.4414 15.3929 69.9932 14.8896 70.7572 14.8896C71.309 14.8896 71.8608 15.0993 71.8608 15.4348C71.8608 15.6445 71.691 15.7704 71.5213 15.7704C71.4788 15.7704 71.3939 15.7284 71.2666 15.6865C71.1392 15.6445 70.9695 15.5607 70.7572 15.5607H70.6723C70.3752 15.6026 70.2479 15.7704 70.2479 15.9801C70.2479 16.3156 70.6299 16.3995 71.0543 16.5253H71.0968C71.6486 16.6931 72.2853 16.8609 72.2853 17.6578C72.1579 18.4128 71.5213 18.958 70.7572 18.958Z" fill="#5A6C7D"/>
</g>
</g>
<g opacity="0.899994">
<g opacity="0.899994">
<path opacity="0.899994" d="M81.9204 18.2449H81.4535V15.6026H81.9628C82.6844 15.6026 83.2362 16.1897 83.2362 16.9028C83.2362 17.6577 82.6844 18.2449 81.9204 18.2449ZM80.6895 18.5805C80.6895 18.7902 80.8168 18.916 81.029 18.916H81.9204C83.0664 18.916 84.0002 17.9933 84.0002 16.9447C84.0002 15.8542 83.0664 14.9734 81.9204 14.9734H81.029C80.8168 14.9734 80.6895 15.0992 80.6895 15.309V18.5805Z" fill="#5A6C7D"/>
</g>
</g>
<g opacity="0.899994">
<g opacity="0.899994">
<path opacity="0.899994" d="M73.3464 18.916C73.1342 18.8741 73.0068 18.7482 73.0068 18.5385V15.267C73.0068 15.0573 73.1766 14.8895 73.3888 14.8895H75.1291C75.3414 14.8895 75.4687 15.0154 75.4687 15.2251C75.4687 15.4348 75.3414 15.5606 75.1291 15.5606H73.7709V16.3995H75.0018C75.214 16.3995 75.3414 16.5253 75.3414 16.735C75.3414 16.9447 75.214 17.0705 75.0018 17.0705H73.7709V18.203H75.1291C75.3414 18.203 75.4687 18.3288 75.4687 18.5385C75.4687 18.7482 75.3414 18.8741 75.1291 18.8741H73.3464V18.916Z" fill="#5A6C7D"/>
</g>
</g>
<g opacity="0.899994">
<g opacity="0.899994">
<path opacity="0.899994" d="M78.9919 18.7903C79.0344 18.9161 79.2041 18.9581 79.289 18.9581C79.5013 18.9581 79.671 18.7903 79.671 18.5806V15.2671C79.671 15.0574 79.5013 14.8896 79.289 14.8896C79.0768 14.8896 78.907 15.0574 78.907 15.2671V17.6159L78.7797 17.4901C78.1854 16.6512 76.997 15.0993 76.9545 15.0574C76.9121 14.9735 76.7847 14.9316 76.6574 14.9316C76.4452 14.9316 76.2754 15.0993 76.2754 15.3091V18.6225C76.2754 18.8322 76.4452 19 76.6574 19C76.8696 19 77.0394 18.8322 77.0394 18.6225V16.2737L78.9919 18.7903Z" fill="#5A6C7D"/>
</g>
</g>
<g opacity="0.899994">
<g opacity="0.899994">
<path opacity="0.899994" d="M19.101 18.958C18.6341 18.958 18.1672 18.7902 17.9125 18.5386C17.8276 18.4966 17.7852 18.3708 17.7852 18.2869C17.7852 18.1611 17.8276 18.0772 17.9125 18.0353C17.9974 17.9514 18.0823 17.9094 18.2096 17.9094C18.2945 17.9094 18.4218 17.9514 18.4643 18.0353C18.5916 18.1611 18.8887 18.245 19.101 18.245C19.483 18.245 19.7377 18.0353 19.7377 17.7417C19.7377 17.3642 19.3556 17.2384 18.9312 17.1545C18.4218 17.0286 17.8276 16.777 17.8276 15.9801C17.8276 15.3509 18.3794 14.8476 19.1434 14.8476C19.6952 14.8476 20.247 15.0573 20.247 15.3929C20.247 15.6026 20.0772 15.7284 19.9074 15.7284C19.865 15.7284 19.7801 15.6865 19.6528 15.6445C19.483 15.6026 19.3132 15.5187 19.101 15.5187H19.0161C18.719 15.5607 18.5916 15.7284 18.5916 15.9381C18.5916 16.2737 18.9736 16.3576 19.3981 16.4834H19.4405C19.9923 16.6512 20.629 16.8189 20.629 17.6158C20.5441 18.4128 19.9074 18.958 19.101 18.958Z" fill="#5A6C7D"/>
</g>
</g>
<g opacity="0.899994">
<g opacity="0.899994">
<path opacity="0.899994" d="M25.722 15.6026V16.9028H26.6982C26.7831 16.9028 26.9104 16.8608 26.9953 16.8608C27.0802 16.8189 27.1227 16.7769 27.2076 16.735C27.25 16.6931 27.3349 16.6092 27.3349 16.5253C27.3773 16.4414 27.3773 16.3575 27.3773 16.2736C27.3773 16.1897 27.3349 16.1059 27.3349 16.022C27.2924 15.9381 27.25 15.8962 27.2076 15.8123C27.1651 15.7703 27.0802 15.6864 26.9953 15.6864C26.9104 15.6445 26.8255 15.6445 26.7407 15.6445H25.722V15.6026ZM25.2975 18.916C25.1702 18.916 25.0853 18.8741 25.0004 18.7902C24.9155 18.7063 24.873 18.6224 24.873 18.4966V15.309C24.873 15.1831 24.9155 15.0992 25.0004 15.0154C25.0853 14.9315 25.1702 14.8895 25.2975 14.8895H26.7831C26.9529 14.8895 27.1651 14.9315 27.2924 15.0154C27.4622 15.0573 27.5896 15.1831 27.7169 15.309C27.8442 15.4348 27.9291 15.5606 28.014 15.7284C28.0989 15.8962 28.1414 16.0639 28.1414 16.2317C28.1414 16.4833 28.0989 16.6931 27.9291 16.9028C27.8018 17.1125 27.632 17.2803 27.4198 17.3641L27.9716 18.3708C28.014 18.4127 28.014 18.4966 28.014 18.5385C28.014 18.6224 27.9716 18.7063 27.8867 18.7902C27.8442 18.8741 27.7169 18.916 27.632 18.916C27.5896 18.916 27.5047 18.8741 27.4198 18.8741C27.3773 18.8321 27.2924 18.7902 27.2924 18.7482L26.6133 17.5319H25.722V18.5385C25.722 18.6644 25.6795 18.7482 25.5946 18.8321C25.5097 18.8741 25.4248 18.916 25.2975 18.916Z" fill="#5A6C7D"/>
</g>
</g>
<g opacity="0.899994">
<g opacity="0.899994">
<path opacity="0.899994" d="M30.3062 18.916C30.1789 18.916 30.094 18.8741 29.9667 18.7902C29.8818 18.7063 29.7969 18.6224 29.7544 18.4966L28.6508 15.309C28.6508 15.267 28.6084 15.2251 28.6084 15.1831C28.6084 15.0573 28.6508 14.9734 28.7357 14.9315C28.8206 14.8476 28.9055 14.8056 29.0329 14.8056C29.1177 14.8056 29.2026 14.8476 29.2451 14.8895C29.33 14.8895 29.3724 14.9315 29.3724 15.0154L30.2638 17.7416L31.1551 15.0154C31.1976 14.9315 31.24 14.8895 31.2825 14.8056C31.3249 14.7637 31.4098 14.7218 31.4947 14.7218C31.622 14.7218 31.7069 14.7637 31.7918 14.8476C31.8767 14.9734 31.9192 15.0573 31.9192 15.1412C31.9192 15.1831 31.9192 15.2251 31.8767 15.267L30.8156 18.4966C30.7731 18.6224 30.6882 18.7063 30.6033 18.7902C30.5609 18.8741 30.4336 18.916 30.3062 18.916Z" fill="#5A6C7D"/>
</g>
</g>
<g opacity="0.899994">
<g opacity="0.899994">
<path opacity="0.899994" d="M33.193 18.916C33.0657 18.916 32.9808 18.8741 32.8959 18.7902C32.811 18.7063 32.7686 18.6224 32.7686 18.4966V15.1831C32.7686 15.0573 32.811 14.9734 32.8959 14.8895C32.9808 14.8056 33.0657 14.7637 33.193 14.7637C33.3203 14.7637 33.4052 14.8056 33.4901 14.8895C33.575 14.9734 33.6175 15.0573 33.6175 15.1831V18.4966C33.6175 18.6224 33.575 18.7063 33.4901 18.7902C33.4052 18.8741 33.2779 18.916 33.193 18.916Z" fill="#5A6C7D"/>
</g>
</g>
<g opacity="0.899994">
<g opacity="0.899994">
<path opacity="0.899994" d="M37.4794 17.8256C37.5643 17.8256 37.6492 17.8675 37.7341 17.9514C37.819 17.9933 37.8614 18.0772 37.8614 18.203C37.8614 18.245 37.8614 18.2869 37.819 18.3289C37.7765 18.3708 37.7765 18.4128 37.7341 18.4547C37.5643 18.6225 37.3521 18.7483 37.1398 18.8322C36.9276 18.9161 36.6729 18.958 36.4183 18.958C36.1211 18.958 35.8665 18.9161 35.6118 18.7902C35.3571 18.6644 35.1449 18.5386 34.9751 18.3708C34.8053 18.1611 34.6355 17.9514 34.5506 17.6997C34.4233 17.4481 34.3809 17.1964 34.3809 16.8609C34.3809 16.5673 34.4233 16.3156 34.5506 16.064C34.678 15.8123 34.8053 15.6026 34.9751 15.4348C35.1449 15.2251 35.3571 15.0993 35.6118 15.0154C35.8665 14.8896 36.1211 14.8476 36.4183 14.8476C36.6729 14.8476 36.8852 14.8896 37.0974 14.9735C37.3096 15.0573 37.4794 15.1832 37.6492 15.309C37.7341 15.3929 37.7765 15.4768 37.7765 15.5607C37.7765 15.6445 37.7341 15.7284 37.6916 15.7704C37.6492 15.8543 37.5643 15.8962 37.437 15.8962C37.3521 15.8962 37.2672 15.8543 37.2247 15.8123C37.0125 15.6026 36.7578 15.5187 36.4183 15.5187C36.2485 15.5187 36.0787 15.5607 35.9514 15.6445C35.7816 15.7284 35.6542 15.8123 35.5693 15.9381C35.4844 16.064 35.3571 16.2317 35.2722 16.3576C35.2298 16.5253 35.1449 16.7351 35.1449 16.9028C35.1449 17.1125 35.1873 17.2803 35.2722 17.4481C35.3147 17.6158 35.442 17.7836 35.5693 17.8675C35.6967 17.9933 35.824 18.0772 35.9514 18.1611C36.0787 18.245 36.2485 18.2869 36.4183 18.2869C36.588 18.2869 36.7154 18.245 36.8852 18.1611C37.0125 18.1192 37.1398 17.9933 37.2672 17.8675C37.3096 17.8256 37.3521 17.8256 37.3945 17.7836C37.3945 17.8256 37.4794 17.8256 37.4794 17.8256Z" fill="#5A6C7D"/>
</g>
</g>
<g opacity="0.899994">
<g opacity="0.899994">
<path opacity="0.899994" d="M39.5174 18.1613H41.2152C41.3001 18.1613 41.385 18.2033 41.4275 18.2452C41.4699 18.2872 41.5124 18.3711 41.5124 18.4549C41.5124 18.5388 41.4699 18.6227 41.4275 18.6647C41.385 18.7066 41.3001 18.7485 41.2152 18.7485H39.1354C39.0081 18.7485 38.9232 18.7066 38.8383 18.6227C38.7534 18.5388 38.7109 18.4549 38.7109 18.3291V15.2673C38.7109 15.1415 38.7534 15.0576 38.8383 14.9737C38.9232 14.8898 39.0081 14.8479 39.1354 14.8479H41.2152C41.3001 14.8479 41.385 14.8898 41.4275 14.9318C41.4699 14.9737 41.5548 15.0576 41.5548 15.1415C41.5548 15.2254 41.5124 15.3092 41.4699 15.3512C41.4275 15.3931 41.3426 15.4351 41.2577 15.4351H39.5599V16.3578H40.8332C40.9181 16.3578 41.003 16.3998 41.0454 16.4417C41.0879 16.4836 41.1303 16.5675 41.1303 16.6514C41.1303 16.7353 41.0879 16.8192 41.0454 16.8611C41.003 16.9869 40.9181 17.0289 40.7908 17.0289H39.5174V18.1613Z" fill="#5A6C7D"/>
</g>
</g>
<g opacity="0.899994">
<g opacity="0.899994">
<path opacity="0.899994" d="M49.4075 16.8612V18.1614H50.4262C50.5111 18.1614 50.596 18.1195 50.6809 18.1195C50.7658 18.0776 50.8082 18.0356 50.8931 17.9937C50.9356 17.9517 51.0204 17.8678 51.0204 17.784C51.0629 17.7001 51.0629 17.6162 51.0629 17.5323C51.0629 17.4484 51.0204 17.3645 51.0204 17.2806C50.978 17.1968 50.9356 17.1548 50.8931 17.0709C50.8507 17.029 50.7658 16.9451 50.6809 16.9451C50.596 16.9032 50.5111 16.9032 50.4262 16.9032H49.4075V16.8612ZM49.4075 16.274H50.3413C50.4262 16.274 50.5111 16.2321 50.5535 16.1482C50.596 16.0643 50.6384 16.0224 50.6384 15.8965C50.6384 15.8127 50.596 15.7288 50.5535 15.6868C50.5111 15.6449 50.4262 15.6029 50.3413 15.6029H49.4075V16.274ZM48.9831 18.8325C48.8557 18.8325 48.7708 18.7906 48.6859 18.7067C48.601 18.6228 48.5586 18.5389 48.5586 18.4131V15.2674C48.5586 15.1416 48.601 15.0577 48.6859 14.9738C48.7708 14.8899 48.8557 14.848 48.9831 14.848H50.3838C50.5111 14.848 50.6809 14.8899 50.7658 14.9319C50.8931 14.9738 50.978 15.0577 51.0629 15.1416C51.1478 15.2255 51.2327 15.3513 51.2751 15.4352C51.3176 15.5191 51.36 15.6868 51.36 15.8127C51.36 15.9385 51.3176 16.0224 51.3176 16.1063C51.2751 16.1901 51.2327 16.316 51.1902 16.3579C51.36 16.4837 51.4873 16.6515 51.6147 16.8193C51.742 17.029 51.742 17.1968 51.742 17.4484C51.742 17.6581 51.6996 17.8259 51.6147 17.9517C51.5298 18.1195 51.4449 18.2453 51.3176 18.3712C51.1902 18.497 51.0629 18.5809 50.8931 18.6647C50.7233 18.7067 50.5535 18.7906 50.3838 18.7906L48.9831 18.8325Z" fill="#5A6C7D"/>
</g>
</g>
<g opacity="0.899994">
<g opacity="0.899994">
<path opacity="0.899994" d="M43.6347 18.2449H43.1678V15.6026H43.6771C44.3987 15.6026 44.9505 16.1897 44.9505 16.9028C44.9081 17.6577 44.3138 18.2449 43.6347 18.2449ZM42.3613 18.5805C42.3613 18.7902 42.4887 18.916 42.7009 18.916H43.5923C44.7383 18.916 45.6721 17.9933 45.6721 16.9447C45.6721 15.8542 44.7383 14.9734 43.5923 14.9734H42.7009C42.4887 14.9734 42.3613 15.0992 42.3613 15.309V18.5805Z" fill="#5A6C7D"/>
</g>
</g>
<g opacity="0.899994">
<g opacity="0.899994">
<path opacity="0.899994" d="M21.7751 18.916C21.5629 18.8741 21.4355 18.7482 21.4355 18.5385V15.267C21.4355 15.0573 21.6053 14.8895 21.8176 14.8895H23.5578C23.7701 14.8895 23.8974 15.0154 23.8974 15.2251C23.8974 15.4348 23.7701 15.5606 23.5578 15.5606H22.1996V16.3995H23.4305C23.6427 16.3995 23.7701 16.5253 23.7701 16.735C23.7701 16.9447 23.6427 17.0705 23.4305 17.0705H22.1996V18.203H23.5578C23.7701 18.203 23.8974 18.3288 23.8974 18.5385C23.8974 18.7482 23.7701 18.8741 23.5578 18.8741H21.7751V18.916Z" fill="#5A6C7D"/>
</g>
</g>
<g opacity="0.899994">
<g opacity="0.899994">
<path opacity="0.899994" d="M53.8213 18.958C53.6091 18.958 53.4393 18.7902 53.4393 18.5805V17.4481L52.1235 15.4768C52.0811 15.3929 52.0811 15.309 52.0811 15.1832C52.1235 15.0993 52.1659 15.0154 52.2508 14.9735C52.2933 14.9315 52.3782 14.9315 52.4631 14.9315C52.5904 14.9315 52.7177 14.9735 52.7602 15.0993L53.8213 16.6931L54.8825 15.0993C54.9249 14.9735 55.0947 14.9315 55.1796 14.9315C55.222 14.9315 55.3069 14.9735 55.3918 14.9735C55.4767 15.0154 55.5192 15.0993 55.5616 15.1832C55.604 15.2671 55.5616 15.3929 55.5192 15.4768L54.2033 17.4481V18.5805C54.2033 18.7902 54.0336 18.958 53.8213 18.958Z" fill="#5A6C7D"/>
</g>
</g>
</g>
<defs>
<clipPath id="clip0_290_1532">
<rect width="84" height="19" fill="white"/>
</clipPath>
</defs>
</svg>
