<svg width="14" height="14" viewBox="0 0 14 14" fill="none" xmlns="http://www.w3.org/2000/svg">
<g clip-path="url(#clip0_290_1790)">
<path d="M5.25033 12.8333C5.57249 12.8333 5.83366 12.5721 5.83366 12.25C5.83366 11.9278 5.57249 11.6666 5.25033 11.6666C4.92816 11.6666 4.66699 11.9278 4.66699 12.25C4.66699 12.5721 4.92816 12.8333 5.25033 12.8333Z" stroke="#BF3B3B" stroke-width="1.5" stroke-linecap="round" stroke-linejoin="round"/>
<path d="M11.6663 12.8333C11.9885 12.8333 12.2497 12.5721 12.2497 12.25C12.2497 11.9278 11.9885 11.6666 11.6663 11.6666C11.3442 11.6666 11.083 11.9278 11.083 12.25C11.083 12.5721 11.3442 12.8333 11.6663 12.8333Z" stroke="#BF3B3B" stroke-width="1.5" stroke-linecap="round" stroke-linejoin="round"/>
<path d="M0.583008 0.583374H2.91634L4.47967 8.39421C4.53302 8.66277 4.67912 8.90402 4.89241 9.07572C5.1057 9.24741 5.37258 9.33862 5.64634 9.33338H11.3163C11.5901 9.33862 11.857 9.24741 12.0703 9.07572C12.2836 8.90402 12.4297 8.66277 12.483 8.39421L13.4163 3.50004H3.49967" stroke="#BF3B3B" stroke-width="1.5" stroke-linecap="round" stroke-linejoin="round"/>
</g>
<defs>
<clipPath id="clip0_290_1790">
<rect width="14" height="14" fill="white"/>
</clipPath>
</defs>
</svg>
