<svg width="52" height="16" viewBox="0 0 52 16" fill="none" xmlns="http://www.w3.org/2000/svg">
<path fill-rule="evenodd" clip-rule="evenodd" d="M48.0411 15.7965C48.0411 15.7965 47.6626 13.6199 47.5358 13.0744H42.0639C41.9129 13.5013 41.1569 15.7965 41.1569 15.7965H36.6927L43.0232 1.57012C43.1804 1.14729 43.4859 0.787613 43.8892 0.550451C44.2925 0.313288 44.7696 0.21282 45.2417 0.265626H48.5454L52.0001 15.7965H48.0411ZM45.8467 5.78923L45.5437 4.46101C45.3424 5.05397 44.963 5.97898 44.9891 5.95526C44.9891 5.95526 43.6272 9.39258 43.3 10.293H46.8302C46.6559 9.50844 45.8467 5.78923 45.8467 5.78923ZM36.6675 3.84617C35.6707 3.42179 34.5838 3.21892 33.4907 3.2532C31.8006 3.2532 31.0436 3.9164 31.0185 4.58051C31.0185 5.31578 31.9274 5.78924 33.4384 6.49622C35.8854 7.58635 37.0198 8.93737 36.9947 10.7144C36.9695 13.9145 34.0695 15.9999 29.5801 15.9999C27.9581 16.005 26.3494 15.7241 24.837 15.1716L25.4178 11.6869L25.9986 11.9478C27.2368 12.5214 28.6034 12.8058 29.9828 12.777C31.2188 12.777 32.5295 12.3026 32.5556 11.2599C32.5556 10.573 32.001 10.074 30.3361 9.31686C28.7225 8.5816 26.5784 7.34916 26.6036 5.12056C26.6287 2.11017 29.5791 0.00016443 33.7907 0.00016443C35.0989 -0.00683225 36.3975 0.209512 37.6239 0.638729L37.0431 4.0058L36.6675 3.84617ZM17.9064 15.7965L20.579 0.265626H24.838L22.1664 15.7965H17.9074H17.9064ZM7.64601 15.7965L4.0752 3.15013C4.65514 3.42567 5.20444 3.75509 5.71493 4.13351C7.26623 5.32811 8.59312 6.76028 9.64001 8.36996L9.71067 8.70475L10.1647 10.8385L14.3501 0.265626H18.8647L12.1567 15.7965H7.64697H7.64601ZM9.38835 7.13022L9.56451 7.97861L9.38835 7.13022Z" fill="#5A6C7D"/>
<path opacity="0.35" fill-rule="evenodd" clip-rule="evenodd" d="M5.71098 4.13372C5.20074 3.75498 4.6514 3.42554 4.07125 3.15033L3.8283 2.29009C2.62261 1.63851 1.33699 1.12813 0 0.770294V0.289551H6.54732C6.93905 0.290451 7.31867 0.417621 7.62312 0.649945C7.92756 0.882269 8.1385 1.20576 8.22092 1.56668L9.63802 8.36652C8.5902 6.75799 7.26265 5.32707 5.71098 4.13372Z" fill="#5A6C7D"/>
</svg>
